# xmcd
#
# Track frame offsets: 
#        150
#        18416
#        32063
#        41292
#        63492
#        86658
#        93887
#        108887
#        122556
#        133607
#        144880
#        160867
#        171783
#        186370
#        201004
#        211780
#        224286
#        233067
#        240117
#        250493
#
# Disc length: 3426 seconds
#
# Revision: 12
# Processed by: cddbd v1.5.2PL0 Copyright (c) Steve Scherf et al.
# Submitted via: ExactAudioCopy v0.99pb4
#
DISCID=040d6014
DTITLE=Various Artist - The Celtic Collection - Whiskey in the Jar
DYEAR=1999
DGENRE=Celtic
TTITLE0=Paddy O'Connor and Friends, Cry of the Celts
TTITLE1=Melody Greenwood, The Isle of Innisfree
TTITLE2=Paddy O'Connor and Friends, Arther McBride
TTITLE3=The Celtic Celli Band, Ballinasloe
TTITLE4=Melody Greenwood, The Mountains of Mourne
TTITLE5=Paddy O'Connor and Friends, The Nightingale
TTITLE6=Paddy O'Connor and Friends, Port Lairge
TTITLE7=The Celtic Celli Band, The Southern Wind
TTITLE8=Melody Greenwood, if You're Irish come into the Parlour
TTITLE9=Paddy O'Connor and Friends, Greensleeves
TTITLE10=Paddy O'Connor and Friends, Little Fairy Big Fairy
TTITLE11=The Celtic Celli Band, Morrison Merrily Kissed the Quaker 
TTITLE12=Melody Greenwood, I'll Take You Home Again Kathleen
TTITLE13=Paddy O'Connor and Friends, Feilims Little Boat
TTITLE14=The Celtic Celli Band, Ew Rigged Ship
TTITLE15=Paddy O'Connor and Friends, Sweet Betsy from Pike
TTITLE16=Brian Dullaghan, Meeting of the Waters
TTITLE17=Melody Greenwood, Believe Me If All Those Endearing Young Cha
TTITLE17=rms
TTITLE18=Brian Dullaghan, Goodnight Irene
TTITLE19=Paddy O'Connor and Friends, Whiskey in the Jar
EXTD=ID3G:  88 YEAR: 1997
EXTT0=
EXTT1=
EXTT2=
EXTT3=
EXTT4=
EXTT5=
EXTT6=
EXTT7=
EXTT8=
EXTT9=
EXTT10=
EXTT11=
EXTT12=
EXTT13=
EXTT14=
EXTT15=
EXTT16=
EXTT17=
EXTT18=
EXTT19=
PLAYORDER=
